<svg width="28" height="27" viewBox="0 0 28 27" fill="none" xmlns="http://www.w3.org/2000/svg">
<path d="M26.6188 24.6097C26.8723 24.8656 27.0145 25.2113 27.0145 25.5715C27.0145 25.9317 26.8723 26.2774 26.6188 26.5333C26.3607 26.7828 26.0159 26.9223 25.6569 26.9223C25.298 26.9223 24.9531 26.7828 24.6951 26.5333L13.5072 15.3286L2.31941 26.5333C2.06138 26.7828 1.71649 26.9223 1.35756 26.9223C0.998628 26.9223 0.653741 26.7828 0.395709 26.5333C0.14221 26.2774 0 25.9317 0 25.5715C0 25.2113 0.14221 24.8656 0.395709 24.6097L11.6004 13.4218L0.395709 2.23398C0.180439 1.97169 0.070428 1.6387 0.0870732 1.29979C0.103718 0.960879 0.24583 0.640275 0.485765 0.400339C0.725701 0.160403 1.04631 0.0182919 1.38522 0.00164675C1.72413 -0.0149984 2.05712 0.0950128 2.31941 0.310282L13.5072 11.515L24.6951 0.310282C24.9574 0.0950128 25.2904 -0.0149984 25.6293 0.00164675C25.9682 0.0182919 26.2888 0.160403 26.5287 0.400339C26.7687 0.640275 26.9108 0.960879 26.9274 1.29979C26.9441 1.6387 26.834 1.97169 26.6188 2.23398L15.4141 13.4218L26.6188 24.6097Z" fill="black"/>
</svg>
